HIERARCHY
ROOT RootJoint
{
    OFFSET   0.000000   0.000000   0.000000
    CHANNELS 6 Xposition Yposition Zposition Xrotation Yrotation Zrotation
    JOINT lHip
    {
        OFFSET   0.100000  -0.051395   0.000000
        CHANNELS 3 Xrotation Yrotation Zrotation
        JOINT lKnee
        {
            OFFSET   0.000000  -0.410000   0.000000
            CHANNELS 3 Xrotation Yrotation Zrotation
            JOINT lAnkle
            {
                OFFSET   0.000000  -0.390000   0.000000
                CHANNELS 3 Xrotation Yrotation Zrotation
                JOINT lToeJoint
                {
                    OFFSET   0.000000  -0.050000   0.130000
                    CHANNELS 3 Xrotation Yrotation Zrotation
                    End Site
                    {
                        OFFSET   0.010000   0.002000   0.060000
                    }
                }
            }
        }
    }
    JOINT rHip
    {
        OFFSET  -0.100000  -0.051395   0.000000
        CHANNELS 3 Xrotation Yrotation Zrotation
        JOINT rKnee
        {
            OFFSET   0.000000  -0.410000   0.000000
            CHANNELS 3 Xrotation Yrotation Zrotation
            JOINT rAnkle
            {
                OFFSET   0.000000  -0.390000   0.000000
                CHANNELS 3 Xrotation Yrotation Zrotation
                JOINT rToeJoint
                {
                    OFFSET   0.000000  -0.050000   0.130000
                    CHANNELS 3 Xrotation Yrotation Zrotation
                    End Site
                    {
                        OFFSET  -0.010000   0.002000   0.060000
                    }
                }
            }
        }
    }
    JOINT pelvis_lowerback
    {
        OFFSET   0.000000   0.093605   0.000000
        CHANNELS 3 Xrotation Yrotation Zrotation
        JOINT lowerback_torso
        {
            OFFSET   0.000000   0.100000   0.000000
            CHANNELS 3 Xrotation Yrotation Zrotation
            JOINT torso_head
            {
                OFFSET   0.000000   0.282350   0.000000
                CHANNELS 3 Xrotation Yrotation Zrotation
                End Site
                {
                    OFFSET   0.000000   0.192650   0.000000
                }
            }
            JOINT lTorso_Clavicle
            {
                OFFSET   0.001000   0.157500   0.000000
                CHANNELS 3 Xrotation Yrotation Zrotation
                JOINT lShoulder
                {
                    OFFSET   0.117647   0.000000   0.000000
                    CHANNELS 3 Xrotation Yrotation Zrotation
                    JOINT lElbow
                    {
                        OFFSET   0.245000   0.000000   0.000000
                        CHANNELS 3 Xrotation Yrotation Zrotation
                        JOINT lWrist
                        {
                            OFFSET   0.240000   0.000000   0.000000
                            CHANNELS 3 Xrotation Yrotation Zrotation
                            End Site
                            {
                                OFFSET   0.116353  -0.002500   0.000000
                            }
                        }
                    }
                }
            }
            JOINT rTorso_Clavicle
            {
                OFFSET  -0.001000   0.157500   0.000000
                CHANNELS 3 Xrotation Yrotation Zrotation
                JOINT rShoulder
                {
                    OFFSET  -0.117647   0.000000   0.000000
                    CHANNELS 3 Xrotation Yrotation Zrotation
                    JOINT rElbow
                    {
                        OFFSET  -0.245000   0.000000   0.000000
                        CHANNELS 3 Xrotation Yrotation Zrotation
                        JOINT rWrist
                        {
                            OFFSET  -0.240000   0.000000   0.000000
                            CHANNELS 3 Xrotation Yrotation Zrotation
                            End Site
                            {
                                OFFSET  -0.116353  -0.002500   0.000000
                            }
                        }
                    }
                }
            }
        }
    }
}
MOTION
Frames: 14
Frame Time:   0.016667
 -0.662400   0.866881   2.589168  -2.351480   0.471357   5.621653  -9.588545   8.696254 -11.808607  24.584147   1.912333   5.676016 -10.687527   0.639521   1.479541   0.000003   0.000005  -0.000002 -26.868843  -6.383533  -3.450919  65.919414  -6.388817  -7.424485   6.715325  -2.576924  -4.794931   0.000000   0.000011   0.000001   1.845728  -0.016287  -1.580513   7.436715  -0.150299  -6.251972  10.795045  -3.214345  -1.233580   0.112046  -0.825426 -19.820543  20.175468 -33.305246 -43.538084   0.316485 -15.847497   4.520105   7.416778   2.795848  -3.051716  -1.116115   1.119802  18.180545  19.881239  27.963603  49.829221  -0.996124  28.070028  -4.090689   4.051113   3.815946  -0.134831
 -0.662000   0.867599   2.614827  -2.657150   1.194886   5.884900  -6.752028   9.004070 -11.815585  23.310509   1.028688   5.242596 -11.614655  -0.008391   1.690474   0.000003   0.000012  -0.000001 -28.688902  -5.924453  -3.057706  62.745392  -6.356251  -7.295051   5.313767  -2.634993  -4.572764   0.000000   0.000013  -0.000002   1.835160  -0.185268  -1.592236   7.370375  -0.823924  -6.286826  11.405115  -3.043400  -0.891501   0.100114  -0.988602 -19.366926  18.278375 -33.559233 -43.124529   0.407713 -17.815195   5.799823   8.067506   2.408898  -0.539649  -1.106157   0.996820  18.141224  20.086952  27.815021  49.952101  -1.006583  28.270452  -4.117978   3.933147   3.825932  -0.257215
 -0.661351   0.867038   2.641104  -2.956178   2.102951   6.014910  -3.967013   9.297356 -11.622742  22.106449   0.040066   4.879189 -12.539216  -0.710820   1.840273   0.000002   0.000012  -0.000001 -29.898744  -5.783260  -2.825116  58.256989  -6.282502  -7.061116   4.688655  -2.750123  -4.780119   0.000000   0.000006  -0.000000   1.820674  -0.388521  -1.559112   7.283737  -1.630457  -6.141404  11.915820  -2.901911  -0.693102   0.092232  -1.108442 -18.990509  16.242498 -33.653946 -42.657476   0.483192 -20.054313   6.897064   8.073584   2.120687   0.320707  -1.101595   0.923363  18.137462  20.391035  27.776344  49.870469  -1.015652  28.443976  -4.143011   4.092699   3.773899  -0.133103
 -0.660638   0.866158   2.667536  -3.254681   3.056902   6.115543  -1.194251   9.597335 -11.390469  20.915108  -0.969675   4.517292 -13.462158  -1.428270   1.965985   0.000000   0.000009  -0.000001 -30.955869  -5.722811  -2.633804  53.440287  -6.217155  -6.795646   4.256957  -2.876574  -5.095533   0.000000  -0.000002   0.000003   1.805362  -0.600351  -1.514823   7.194560  -2.470494  -5.951914  12.401459  -2.767095  -0.531383   0.085781  -1.217473 -18.633391  14.171682 -33.720149 -42.177742   0.589649 -22.360272   7.963519   7.917932   1.851761   0.766865  -1.098363   0.862289  18.142588  20.719639  27.764477  49.737724  -1.024326  28.610777  -4.167488   4.321807   3.706990   0.052862
 -0.659660   0.863811   2.694349  -3.475479   4.146521   6.150646   1.348636   9.586239 -11.121929  19.890651  -1.822225   4.346122 -14.448404  -2.014749   2.000171   0.000001   0.000011  -0.000001 -31.516941  -6.179759  -2.749722  47.538334  -5.973175  -6.594749   4.173326  -3.067376  -4.235079   0.000000   0.000002   0.000002   1.777253  -0.811718  -1.445782   7.058073  -3.305792  -5.666404  12.672884  -2.725222  -0.454652   0.074752  -1.413205 -18.293142  12.101683 -33.800059 -41.661257   0.683219 -24.707997   8.748598   6.988060   1.637837   0.126602  -1.095962   0.758863  18.195308  21.085661  27.680943  49.469726  -1.036985  28.797653  -4.157259   4.619773   3.649945   0.303076
 -0.658595   0.861078   2.721222  -3.667569   5.270034   6.155653   3.815092   9.457822 -10.829603  18.894381  -2.601453   4.221231 -15.439441  -2.544409   2.003598   0.000002   0.000014  -0.000001 -31.916469  -6.793334  -2.934984  41.288291  -5.688774  -6.379987   4.232381  -3.263938  -3.161969   0.000001   0.000008  -0.000000   1.745488  -1.019676  -1.367786   6.911176  -4.127056  -5.347276  12.870912  -2.716939  -0.396590   0.062818  -1.645603 -17.949888  10.035122 -33.893467 -41.153090   0.794473 -27.063141   9.457911   5.842332   1.455107  -0.798856  -1.093735   0.639953  18.265421  21.457779  27.571094  49.165143  -1.050729  28.988975  -4.137864   4.922111   3.599491   0.558810
 -0.657325   0.858166   2.747735  -3.762378   6.393242   5.997910   6.095615   8.855852 -10.430559  17.771476  -3.046944   4.165735 -16.316104  -2.834861   1.991297   0.000001   0.000011   0.000000 -31.920165  -7.697603  -3.003785  34.253506  -5.317871  -6.093261   4.811507  -3.353138  -2.905039   0.000000   0.000005  -0.000002   1.707212  -1.194416  -1.261338   6.747843  -4.814163  -4.918621  12.870102  -2.811963  -0.313872   0.044912  -2.027470 -17.534312   8.008600 -33.980297 -40.797618   0.907404 -29.394060  10.000561   4.500579   1.304980  -1.831829  -1.092054   0.472066  18.390479  21.804414  27.390201  48.825111  -1.064492  29.174590  -4.114276   5.094352   3.579136   0.707115
 -0.655972   0.855182   2.774103  -3.814483   7.516512   5.774574   8.303221   8.076065  -9.964744  16.598090  -3.359040   4.136006 -17.147094  -3.029407   1.972637  -0.000001   0.000007   0.000001 -31.764863  -8.718528  -3.022480  26.906366  -4.942364  -5.742357   5.597694  -3.400496  -2.974136  -0.000002  -0.000003  -0.000003   1.666542  -1.355929  -1.143572   6.581152  -5.448588  -4.446919  12.789940  -2.948473  -0.221437   0.027194  -2.469233 -17.089824   5.997173 -34.067919 -40.505088   1.033321 -31.714915  10.485425   3.079105   1.186001  -2.909625  -1.090217   0.284590  18.537514  22.139327  27.179761  48.472373  -1.078339  29.357919  -4.088953   5.214515   3.570664   0.812398
 -0.654721   0.852138   2.799360  -3.808946   8.426625   5.454066  10.410538   7.172681  -9.337352  15.279860  -3.426265   3.970709 -17.700388  -3.047897   1.906597  -0.000001   0.000003   0.000001 -31.285569  -8.955013  -2.957290  19.637996  -4.559268  -5.057728   6.629875  -3.431621  -2.247505  -0.000001  -0.000001  -0.000002   1.636959  -1.459278  -1.023261   6.467626  -5.852714  -3.966381  12.590026  -3.162289  -0.096154   0.009459  -3.017133 -16.567383   4.184059 -34.046415 -40.414687   1.166356 -34.064864  10.898148   2.151055   0.984006  -3.490123  -1.093031   0.112972  18.749891  22.402982  27.017638  48.135188  -1.078040  29.354304  -4.089840   5.166902   3.603086   0.709202
 -0.653496   0.849081   2.824339  -3.784898   9.283302   5.108205  12.498624   6.257750  -8.644635  13.925481  -3.428157   3.772399 -18.184184  -3.021827   1.829332   0.000000   0.000000   0.000000 -30.725181  -8.994632  -2.871175  12.387929  -4.256135  -4.257467   7.723850  -3.442670  -1.321702   0.000000   0.000001   0.000000   1.610264  -1.548124  -0.902330   6.369217  -6.199813  -3.483705  12.360584  -3.395892   0.036553  -0.003902  -3.591683 -16.025337   2.421647 -33.997304 -40.372659   1.318728 -36.421494  11.306552   1.345111   0.763024  -3.948687  -1.096477  -0.054696  18.978593  22.647957  26.866724  47.802635  -1.074197  29.303954  -4.097287   5.077444   3.645916   0.553937
 -0.652224   0.845095   2.849529  -3.863556   9.800707   4.924597  14.563615   6.055460  -8.023717  13.086327  -3.575854   3.569811 -18.403476  -3.081055   1.673691   0.000001   0.000001   0.000000 -30.185538  -8.011840  -2.834280   6.915303  -3.408300  -3.660375   8.094938  -2.883930  -1.845419   0.000001   0.000004   0.000000   1.608636  -1.592429  -0.817951   6.371048  -6.372777  -3.144282  12.187974  -3.626555   0.073837  -0.009920  -4.069401 -15.538700   1.104923 -33.826298 -40.352457   1.487043 -38.840090  11.721385   1.475742   0.419540  -3.871496  -1.106181  -0.110221  19.197136  22.805429  26.821539  47.565668  -1.044098  28.891738  -4.142081   4.895351   3.683299   0.287452
 -0.650935   0.840776   2.874820  -3.973074  10.210584   4.784352  16.606558   6.107247  -7.429120  12.439813  -3.779964   3.383578 -18.546174  -3.176053   1.499805   0.000002   0.000002  -0.000001 -29.681549  -6.811528  -2.810919   2.143958  -2.550882  -3.064379   8.226188  -2.259926  -2.564185   0.000001   0.000008   0.000001   1.613311  -1.624146  -0.741996   6.398397  -6.496185  -2.837732  12.043011  -3.850482   0.067291  -0.011465  -4.502002 -15.084894  -0.050303 -33.613756 -40.324380   1.681156 -41.277269  12.155641   1.922177   0.042281  -3.641502  -1.117843  -0.125422  19.405427  22.928505  26.797531  47.369247  -1.006332  28.364479  -4.197701   4.691690   3.713258   0.000163
 -0.649600   0.835445   2.900600  -4.134487  10.391103   4.665278  18.494612   6.783357  -6.887429  12.438510  -4.198338   3.391429 -18.582301  -3.418490   1.341585   0.000001   0.000004   0.000000 -29.465715  -5.992118  -2.701046  -0.018602  -2.687722  -2.651173   7.676013  -2.360596  -1.594223   0.000000   0.000005   0.000000   1.618273  -1.641482  -0.658967   6.428917  -6.561723  -2.503338  12.032746  -4.014867  -0.134978  -0.009983  -4.725442 -14.822567  -0.726033 -33.290372 -40.201304   1.899402 -43.752200  12.605695   3.172455  -0.363656  -3.242935  -1.133445  -0.017420  19.536635  22.925250  26.722910  47.340367  -0.952283  27.591683  -4.272802   4.502504   3.674363  -0.218113
 -0.648246   0.829708   2.926575  -4.316778  10.480109   4.554733  20.316759   7.717541  -6.391037  12.696303  -4.702624   3.479512 -18.576405  -3.720027   1.189683   0.000000   0.000006   0.000001 -29.366269  -5.324896  -2.554978  -1.134113  -3.214405  -2.337726   6.860926  -2.770841   0.047013  -0.000002   0.000001  -0.000002   1.623355  -1.653060  -0.573109   6.460755  -6.603987  -2.157795  12.075793  -4.155620  -0.415341  -0.007785  -4.865212 -14.636862  -1.209976 -32.923501 -40.038930   2.151596 -46.241355  13.083960   4.746848  -0.770458  -2.767977  -1.150873   0.139850  19.637052  22.871592  26.628115  47.378365  -0.893139  26.720616  -4.354429   4.318892   3.608188  -0.408979
